<?xml version="1.0" encoding="UTF-8"?><svg id="symbol_join" xmlns="http://www.w3.org/2000/svg" xmlns:xlink="http://www.w3.org/1999/xlink" viewBox="0 0 272 272"><defs><style>.cls-1{fill:none;}.cls-2{clip-path:url(#clippath);}.cls-3{fill:#fff;}.cls-4{fill:#131415;}.cls-5{clip-path:url(#clippath-1);}</style><clipPath id="clippath"><rect class="cls-1" width="272" height="272"/></clipPath><clipPath id="clippath-1"><rect class="cls-1" x="-353.98" width="272" height="272"/></clipPath></defs><g class="cls-2"><path d="m143.34,349.8c-83.43,0-159.79-47.85-196.37-122.47-6.57-.21-12.84-1.14-18.68-2.78-7.07-1.99-13.38-5.16-18.77-9.42-5.58-4.41-9.98-10.04-13.09-16.71-3.06-6.58-4.61-14.33-4.61-23.03,0-9.66,1.83-17.92,5.44-24.55,3.55-6.53,8.26-11.87,13.99-15.85,4.08-2.83,8.61-5.13,13.52-6.88,0-.57.02-1.14.03-1.72h-29.26l.64-10.68c.65-10.84,3.5-20.12,8.48-27.58,4.82-7.23,11.05-13.13,18.52-17.52,3.67-2.16,7.61-4.01,11.77-5.54C-51.53,22.58-24.7-15.54,10.95-42.72c38.31-29.21,84.1-44.65,132.4-44.65s98.1,17.05,136.68,48c37.16,29.82,63.83,71.38,75.35,117.31,2.63,2.5,5.05,5.18,7.21,8.02,6.02,7.9,10.53,17.15,13.41,27.51,2.77,10.01,4.18,20.58,4.18,31.42s-1.42,20.45-4.21,30.04c-2.89,9.9-7.35,18.8-13.26,26.47-5.12,6.65-11.4,12.23-18.7,16.62-16.49,38.08-43.32,70.52-77.78,93.99-36.3,24.72-78.79,37.79-122.88,37.79Z"/><path class="cls-3" d="m366.29,116.17c-2.54-9.16-6.44-17.19-11.71-24.09-2.46-3.21-5.22-6.12-8.26-8.74-21.64-92.08-104.3-160.63-202.98-160.63S-31.72-13.82-56.92,73c-5.34,1.54-10.27,3.63-14.78,6.28-6.17,3.63-11.25,8.44-15.24,14.43-3.99,5.99-6.26,13.52-6.81,22.59h29.12c-.35,4.93-.54,9.9-.54,14.91,0,1.48.03,2.95.06,4.42-.88.22-1.76.44-2.64.67-5.72,1.54-10.8,3.86-15.24,6.94-4.45,3.09-8.08,7.21-10.89,12.39-2.82,5.17-4.22,11.75-4.22,19.73,0,7.26,1.22,13.52,3.67,18.78,2.45,5.26,5.85,9.62,10.21,13.07,4.36,3.45,9.43,5.99,15.24,7.62,5.81,1.63,12.07,2.45,18.78,2.45,1.18,0,2.36-.03,3.54-.08,32.76,72.25,105.51,122.5,190,122.5s161.4-53.19,192.71-128.78c7.41-3.95,13.65-9.18,18.67-15.7,5.17-6.71,9.03-14.43,11.57-23.14,2.54-8.71,3.81-17.78,3.81-27.22,0-9.98-1.27-19.55-3.81-28.72Z"/><path class="cls-4" d="m143.34,336.65c-77.73,0-148.71-45.76-180.82-116.59l-2.8-6.18-6.78.27c-1.04.04-2.09.07-3.14.07-5.76,0-11.16-.7-16.05-2.07-4.56-1.28-8.39-3.19-11.72-5.82-3.14-2.48-5.53-5.56-7.33-9.42-1.81-3.9-2.73-8.79-2.73-14.53,0-6.25,1.01-11.27,2.99-14.92,2.07-3.81,4.62-6.73,7.79-8.93,3.47-2.41,7.55-4.26,12.12-5.49.6-.16,1.21-.31,1.82-.47l8.43-2.13-.17-8.02c-.03-1.4-.05-2.8-.05-4.21,0-4.62.17-9.4.51-14.2l.76-10.79h-28c.83-2.6,1.92-4.91,3.26-6.93,3.16-4.75,7.08-8.45,11.97-11.33,3.74-2.2,7.94-3.98,12.46-5.28l5.34-1.54,1.55-5.34C-35.51,42.38-10.5,5.98,23.17-19.69c34.77-26.51,76.33-40.53,120.18-40.53s88.55,15.07,124.07,43.57c34.5,27.68,59.04,66.49,69.09,109.29l.75,3.19,2.48,2.14c2.55,2.2,4.85,4.63,6.83,7.23,4.45,5.84,7.82,12.79,10,20.67,2.28,8.25,3.44,17,3.44,26.02,0,8.43-1.15,16.64-3.41,24.4-2.18,7.47-5.5,14.13-9.88,19.81-4.11,5.33-9.29,9.69-15.42,12.95l-3.19,1.7-1.38,3.34c-30.84,74.45-102.83,122.56-183.4,122.56Z"/><g><path class="cls-3" d="m192.54,134.81c10.1.03,20.21.07,30.31.1-.01,4.44.99,8.21,2.7,11.31-8.86,5.19-17.71,10.38-26.57,15.58-4.09-7.38-6.48-16.38-6.45-26.98Z"/><path class="cls-3" d="m212.68,177.18c6.2-8.17,12.41-16.34,18.61-24.52,2.7,1.94,5.84,3.21,9.11,3.8-1.99,9.93-3.99,19.85-5.98,29.78-7.81-1.41-15.31-4.43-21.74-9.06Z"/><path class="cls-3" d="m254.67,186.31c-1.93-9.94-3.86-19.88-5.78-29.82,3.28-.57,6.43-1.81,9.13-3.74,6.15,8.21,12.3,16.43,18.45,24.64-6.46,4.59-13.98,7.56-21.8,8.92Z"/><path class="cls-3" d="m290.26,162.09c-8.82-5.25-17.64-10.5-26.46-15.75,1.73-3.08,2.76-6.85,2.78-11.29,10.1.03,20.21.07,30.31.1-.03,10.6-2.49,19.58-6.62,26.94Z"/></g><g><path class="cls-3" d="m-20,136.05c10.1.03,20.21.07,30.31.1-.01,4.44.99,8.21,2.7,11.31-8.86,5.19-17.71,10.38-26.57,15.58-4.09-7.38-6.48-16.38-6.45-26.98Z"/><path class="cls-3" d="m.14,178.42c6.2-8.17,12.41-16.34,18.61-24.52,2.7,1.94,5.84,3.21,9.11,3.8-1.99,9.93-3.99,19.85-5.98,29.78-7.81-1.41-15.31-4.43-21.74-9.06Z"/><path class="cls-3" d="m42.13,187.54c-1.93-9.94-3.86-19.88-5.78-29.82,3.28-.57,6.43-1.81,9.13-3.74,6.15,8.21,12.3,16.43,18.45,24.64-6.46,4.59-13.98,7.56-21.8,8.92Z"/><path class="cls-3" d="m77.72,163.33c-8.82-5.25-17.64-10.5-26.46-15.75,1.73-3.08,2.76-6.85,2.78-11.29,10.1.03,20.21.07,30.31.1-.03,10.6-2.49,19.58-6.62,26.94Z"/></g><g><path class="cls-3" d="m225.53,45.27c2.42-2.34,4.83-4.68,7.25-7.01C203.41,8.36,158.46-2.32,117.95,6.23c-2.05-8.69-4.09-17.38-6.14-26.07-.51-2.34-8.13-2.96-22.34,1.11-13.39,4.6-43.57,14.23-70.69,52.01C10.05,46,3.59,60.14-.59,75.24c-4.19,15.06-6.11,31.07-5.97,47.55-3.82,0-7.65,0-11.47,0-.26-31.87,6.81-62.84,22.76-89.24C20.66,7.13,43.23-11.68,68.24-23.82c39.49-19.08,83.87-21.26,121.52-11.4,38.02,9.91,66.72,31.25,84.56,55.66,18.06,24.55,24.67,50.65,26.34,70.76,1.53,20.4-1.49,31.75-4.02,31.59h-9.85c0-55.09-24.15-94.08-58.33-116.97-1.94,2.73-3.88,5.47-5.82,8.2,31.79,21.29,54.25,57.54,54.25,108.77h-38.13c0-71.84-62.2-102.21-114.79-91.11-1.24-5.26-2.48-10.52-3.72-15.78,37.14-7.84,78.37,1.96,105.3,29.37Z"/><path class="cls-3" d="m129.04,53.33c-1.24-5.26-2.48-10.52-3.72-15.78,49.21-10.38,107.4,18.03,107.41,85.24-12.71,0-25.42,0-38.13,0,0-19.17-8.41-32.74-20.3-40.71-1.94,2.73-3.88,5.47-5.82,8.2,9.5,6.36,16.21,17.2,16.21,32.51-3.28,0-6.57,0-9.85,0-2.73-.01-4.83-2.04-6.94-4.58-2.12-2.55-4.42-5.22-7.34-7.46-2.92-2.23-6.42-3.86-10.5-4.57-4.06-.69-8.5-.27-12.53,1.66-2.55,1.24-4.87,3.12-6.57,5.79-1.7,2.67-2.59,5.8-2.8,9.16h-11.47c.14-3.11.62-6.08,1.48-8.87.86-2.79,2.09-5.39,3.72-7.75,5.01-6.99,10.29-9.2,12.58-11.05,2.37-1.73,3.55-3.59,2.99-6.06-2.05-8.69-4.09-17.38-6.14-26.07,20.77-4.38,43.83,1.09,58.9,16.43,2.42-2.34,4.83-4.68,7.25-7.02-17.5-17.82-44.29-24.18-68.43-19.09Z"/></g></g><g class="cls-5"><path d="m-210.63,349.8c-83.43,0-159.79-47.85-196.37-122.47-6.57-.21-12.84-1.14-18.68-2.78-7.07-1.99-13.38-5.16-18.77-9.42-5.58-4.41-9.98-10.04-13.09-16.71-3.06-6.58-4.61-14.33-4.61-23.03,0-9.66,1.83-17.92,5.44-24.55,3.55-6.53,8.26-11.87,13.99-15.85,4.08-2.83,8.61-5.13,13.52-6.88,0-.57.02-1.14.03-1.72h-29.26l.64-10.68c.65-10.84,3.5-20.12,8.48-27.58,4.82-7.23,11.05-13.13,18.52-17.52,3.67-2.16,7.61-4.01,11.77-5.54,13.5-42.49,40.33-80.6,75.98-107.78,38.31-29.21,84.1-44.65,132.4-44.65s98.1,17.05,136.68,48C-36.79-9.55-10.12,32.02,1.4,77.95c2.63,2.5,5.05,5.18,7.21,8.02,6.02,7.9,10.53,17.15,13.41,27.51,2.77,10.01,4.18,20.58,4.18,31.42s-1.42,20.45-4.21,30.04c-2.89,9.9-7.35,18.8-13.26,26.47-5.12,6.65-11.4,12.23-18.7,16.62-16.49,38.08-43.32,70.52-77.78,93.99-36.3,24.72-78.79,37.79-122.88,37.79Z"/><path class="cls-3" d="m12.31,116.17c-2.54-9.16-6.44-17.19-11.71-24.09-2.46-3.21-5.22-6.12-8.26-8.74C-29.29-8.74-111.95-77.29-210.63-77.29S-385.7-13.82-410.89,73c-5.34,1.54-10.27,3.63-14.78,6.28-6.17,3.63-11.25,8.44-15.24,14.43-3.99,5.99-6.26,13.52-6.81,22.59h29.12c-.35,4.93-.54,9.9-.54,14.91,0,1.48.03,2.95.06,4.42-.88.22-1.76.44-2.64.67-5.72,1.54-10.8,3.86-15.24,6.94-4.45,3.09-8.08,7.21-10.89,12.39-2.82,5.17-4.22,11.75-4.22,19.73,0,7.26,1.22,13.52,3.67,18.78,2.45,5.26,5.85,9.62,10.21,13.07,4.36,3.45,9.43,5.99,15.24,7.62,5.81,1.63,12.07,2.45,18.78,2.45,1.18,0,2.36-.03,3.54-.08,32.76,72.25,105.51,122.5,190,122.5S-49.23,286.54-17.92,210.94c7.41-3.95,13.65-9.18,18.67-15.7,5.17-6.71,9.03-14.43,11.57-23.14,2.54-8.71,3.81-17.78,3.81-27.22,0-9.98-1.27-19.55-3.81-28.72Z"/><path class="cls-4" d="m-210.63,329.65c-77.73,0-148.71-45.76-180.82-116.59l-2.8-6.18-6.78.27c-1.04.04-2.09.07-3.14.07-5.76,0-11.16-.7-16.05-2.07-4.56-1.28-8.39-3.19-11.72-5.82-3.14-2.48-5.53-5.56-7.33-9.42-1.81-3.9-2.73-8.79-2.73-14.53,0-6.25,1.01-11.27,2.99-14.92,2.07-3.81,4.62-6.73,7.79-8.93,3.47-2.41,7.55-4.26,12.12-5.49.6-.16,1.21-.31,1.82-.47l8.43-2.13-.17-8.02c-.03-1.4-.05-2.8-.05-4.21,0-4.62.17-9.4.51-14.2l.76-10.79h-28c.83-2.6,1.92-4.91,3.26-6.93,3.16-4.75,7.08-8.45,11.97-11.33,3.74-2.2,7.94-3.98,12.46-5.28l5.34-1.54,1.55-5.34c11.73-40.43,36.74-76.83,70.41-102.5,34.77-26.51,76.33-40.53,120.18-40.53s88.55,15.07,124.07,43.57C-52.06,4.03-27.52,42.85-17.46,85.64l.75,3.19,2.48,2.14c2.55,2.2,4.85,4.63,6.83,7.23,4.45,5.84,7.82,12.79,10,20.67,2.28,8.25,3.44,17,3.44,26.02,0,8.43-1.15,16.64-3.41,24.4-2.18,7.47-5.5,14.13-9.88,19.81-4.11,5.33-9.29,9.69-15.42,12.95l-3.19,1.7-1.38,3.34c-30.84,74.45-102.83,122.56-183.4,122.56Z"/></g></svg>