<?xml version="1.0" encoding="UTF-8"?><svg id="symbol_join" xmlns="http://www.w3.org/2000/svg" viewBox="0 0 272 272"><defs><style>.cls-1{fill:#131415;}</style></defs><g><path class="cls-1" d="m179.46,188.04c7.96.03,15.91.05,23.87.08-.01,3.5.78,6.47,2.13,8.91-6.97,4.09-13.95,8.18-20.92,12.27-3.22-5.82-5.1-12.9-5.08-21.25Z"/><path class="cls-1" d="m195.32,221.41c4.89-6.44,9.77-12.87,14.66-19.31,2.12,1.53,4.6,2.53,7.17,2.99-1.57,7.82-3.14,15.64-4.71,23.45-6.15-1.11-12.06-3.49-17.12-7.13Z"/><path class="cls-1" d="m228.39,228.6c-1.52-7.83-3.04-15.66-4.56-23.48,2.58-.45,5.06-1.43,7.19-2.94,4.84,6.47,9.69,12.94,14.53,19.4-5.09,3.62-11.01,5.96-17.17,7.02Z"/><path class="cls-1" d="m256.43,209.53c-6.95-4.14-13.89-8.27-20.84-12.41,1.36-2.43,2.17-5.39,2.19-8.89,7.96.03,15.91.05,23.87.08-.03,8.35-1.96,15.42-5.22,21.22Z"/></g><g><path class="cls-1" d="m13.04,188.04c7.96.03,15.91.05,23.87.08-.01,3.5.78,6.47,2.13,8.91-6.97,4.09-13.95,8.18-20.92,12.27-3.22-5.82-5.1-12.9-5.08-21.25Z"/><path class="cls-1" d="m28.9,221.41c4.89-6.44,9.77-12.87,14.66-19.31,2.12,1.53,4.6,2.53,7.17,2.99-1.57,7.82-3.14,15.64-4.71,23.45-6.15-1.11-12.06-3.49-17.12-7.13Z"/><path class="cls-1" d="m61.97,228.6c-1.52-7.83-3.04-15.66-4.56-23.48,2.58-.45,5.06-1.43,7.19-2.94,4.84,6.47,9.69,12.94,14.53,19.4-5.09,3.62-11.01,5.96-17.17,7.02Z"/><path class="cls-1" d="m90.01,209.53c-6.95-4.14-13.89-8.27-20.84-12.41,1.36-2.43,2.17-5.39,2.19-8.89,7.96.03,15.91.05,23.87.08-.03,8.35-1.96,15.42-5.22,21.22Z"/></g><g><path class="cls-1" d="m204.14,97.19c1.9-1.84,3.81-3.68,5.71-5.52-23.13-23.55-58.54-31.96-90.44-25.23-1.61-6.84-3.22-13.69-4.83-20.53-.4-1.84-6.41-2.33-17.59.87-10.55,3.62-34.32,11.21-55.68,40.96-6.88,10.02-11.96,21.16-15.26,33.05-3.3,11.86-4.81,24.47-4.7,37.45-3.01,0-6.02,0-9.04,0-.2-25.1,5.37-49.49,17.92-70.28,12.55-20.81,30.33-35.63,50.03-45.19,31.1-15.03,66.05-16.74,95.7-8.98,29.94,7.8,52.55,24.61,66.59,43.84,14.22,19.33,19.43,39.89,20.74,55.73,1.2,16.06-1.18,25.01-3.17,24.88h-7.76c0-43.39-19.02-74.09-45.94-92.12-1.53,2.15-3.06,4.3-4.58,6.46,25.04,16.76,42.72,45.32,42.72,85.67h-30.03c0-56.58-48.99-80.5-90.41-71.76-.98-4.14-1.95-8.29-2.93-12.43,29.25-6.17,61.72,1.54,82.93,23.13Z"/><path class="cls-1" d="m128.15,103.54c-.98-4.14-1.95-8.29-2.93-12.43,38.75-8.18,84.59,14.2,84.59,67.13-10.01,0-20.02,0-30.03,0,0-15.1-6.62-25.79-15.99-32.06-1.53,2.15-3.06,4.3-4.58,6.46,7.48,5.01,12.77,13.54,12.77,25.6-2.59,0-5.17,0-7.76,0-2.15,0-3.8-1.61-5.47-3.6-1.67-2.01-3.48-4.11-5.78-5.87-2.3-1.76-5.06-3.04-8.27-3.6-3.19-.55-6.7-.21-9.87,1.31-2.01.98-3.84,2.45-5.18,4.56-1.34,2.1-2.04,4.57-2.2,7.21h-9.04c.11-2.45.49-4.79,1.17-6.98.68-2.2,1.65-4.24,2.93-6.11,3.95-5.5,8.11-7.25,9.9-8.7,1.87-1.36,2.79-2.83,2.36-4.77-1.61-6.84-3.22-13.69-4.83-20.53,16.36-3.45,34.52.86,46.39,12.94,1.9-1.84,3.81-3.68,5.71-5.52-13.79-14.03-34.89-19.04-53.89-15.03Z"/></g><g><path class="cls-1" d="m12.21,168.44h2.29l3.14,10.59h.21l3.1-10.59h1.87l3.22,10.56h.23l3.01-10.56h2.32l-4.18,13.78h-2.42l-3.13-10.17-3,10.17h-2.4l-4.26-13.78Z"/><path class="cls-1" d="m33.27,175.38c0-4.32,2.25-7.21,6.33-7.21,3.8,0,6.26,2.57,6.26,7.21,0,4.21-2.17,7.1-6.27,7.1-3.82,0-6.31-2.51-6.31-7.1Zm10.15-.05c0-2.94-1.12-5.22-3.82-5.22-2.5,0-3.88,1.95-3.88,5.22,0,2.9,1.12,5.21,3.88,5.21,2.46,0,3.82-1.97,3.82-5.21Z"/><path class="cls-1" d="m49.13,168.44h2.34v2.65c.69-1.98,2.33-2.92,4.08-2.92.4,0,.83.05,1.05.17v2.38c-.27-.12-.76-.16-1.04-.16-2.2-.15-3.98.79-3.98,3.08v8.57h-2.45v-13.78Z"/><path class="cls-1" d="m59.55,178.67v-16.25h2.42v16.01c0,1.4.57,2.07,1.55,2.13h.75v1.61c-.41.13-.89.21-1.24.21-2.97,0-3.48-1.79-3.48-3.72Z"/><path class="cls-1" d="m66.16,175.27c0-4.29,1.89-7.1,5.62-7.1,2.64,0,4.08,1.56,4.52,2.45v-8.21h2.49v19.8h-1.89l-.27-2.82c-.35,1.08-1.43,3.09-4.65,3.09-3.58,0-5.82-2.49-5.82-7.21Zm10.14-.12c-.03-3.22-1.09-5.06-3.84-5.06-2.26,0-3.82,1.53-3.82,5.06s1.31,5.44,3.78,5.44c2.78,0,3.88-1.59,3.88-5.44Z"/><path class="cls-1" d="m87.8,168.44h2.29l3.14,10.59h.21l3.1-10.59h1.87l3.22,10.56h.23l3.01-10.56h2.32l-4.18,13.78h-2.42l-3.13-10.17-3,10.17h-2.4l-4.26-13.78Z"/><path class="cls-1" d="m109.92,162.96h2.52v2.56h-2.52v-2.56Zm.07,5.48h2.38v13.78h-2.38v-13.78Z"/><path class="cls-1" d="m115.71,175.27c0-4.29,1.89-7.1,5.62-7.1,2.64,0,4.08,1.56,4.52,2.45v-8.21h2.49v19.8h-1.89l-.27-2.82c-.35,1.08-1.43,3.09-4.65,3.09-3.58,0-5.82-2.49-5.82-7.21Zm10.14-.12c-.03-3.22-1.09-5.06-3.84-5.06-2.26,0-3.82,1.53-3.82,5.06s1.31,5.44,3.78,5.44c2.78,0,3.88-1.59,3.88-5.44Z"/><path class="cls-1" d="m131.72,175.46c0-4.34,2.32-7.29,6.33-7.29s6.04,2.64,6.04,6.82v.91h-9.87c0,2.61,1.29,4.68,3.97,4.68,1.76,0,3.14-.83,3.49-2.38h2.32c-.51,2.81-3.09,4.29-5.77,4.29-3.85,0-6.5-2.62-6.5-7.02Zm9.99-1.23c0-2.37-1.19-4.2-3.68-4.2s-3.82,2.15-3.81,4.2h7.49Z"/><path class="cls-1" d="m153.79,162.96h2.52v2.56h-2.52v-2.56Zm.07,5.48h2.38v13.78h-2.38v-13.78Z"/><path class="cls-1" d="m160.56,168.44h2.38v2c.68-1.15,2.11-2.2,4.32-2.2,2.61,0,4.82,1.51,4.82,4.97v9.01h-2.46v-8.77c0-2.14-1.24-3.17-3.04-3.17s-3.57.88-3.57,2.73v9.21h-2.45v-13.78Z"/><path class="cls-1" d="m176.78,178.88v-8.65h-2.24v-1.8h2.3l.6-4.01h1.81v4h3.1v1.81h-3.1v8.57c0,1.47.39,1.6,1.68,1.6h1.51v1.65c-.35.13-1.04.23-2.04.23-2.86,0-3.62-1.19-3.62-3.4Z"/><path class="cls-1" d="m184.68,175.46c0-4.34,2.32-7.29,6.33-7.29s6.04,2.64,6.04,6.82v.91h-9.87c0,2.61,1.29,4.68,3.97,4.68,1.76,0,3.14-.83,3.49-2.38h2.32c-.51,2.81-3.09,4.29-5.77,4.29-3.85,0-6.5-2.62-6.5-7.02Zm9.99-1.23c0-2.37-1.19-4.2-3.68-4.2s-3.82,2.15-3.81,4.2h7.49Z"/><path class="cls-1" d="m200.45,168.44h2.34v2.65c.69-1.98,2.33-2.92,4.08-2.92.4,0,.83.05,1.05.17v2.38c-.27-.12-.76-.16-1.04-.16-2.2-.15-3.98.79-3.98,3.08v8.57h-2.45v-13.78Z"/><path class="cls-1" d="m212.93,170.23h-2.92v-1.8h2.92v-2.13c0-2.19,1.11-3.36,3.33-3.36h2.6v1.75s-2.04,0-2.04,0c-1.13,0-1.47.6-1.47,1.83v1.92h3.38v1.8h-3.34v11.98h-2.46v-11.98Z"/><path class="cls-1" d="m221.05,178.48c0-3.05,2.01-4.5,6.73-4.61l2.45-.07v-1.08c0-1.68-.99-2.74-3.1-2.74-1.59.01-2.92.71-3.25,2.34h-2.17c.15-2.68,2.2-4.16,5.54-4.16,3.58,0,5.37,1.55,5.37,4.42v9.62h-2.11l-.19-2.58c-1.07,2.15-2.76,2.85-4.73,2.85-2.68,0-4.54-1.48-4.54-4Zm9.18-.8v-2.36l-2.04.04c-3.17.05-4.76.84-4.76,2.88,0,1.56,1.2,2.46,2.89,2.46,1.85,0,3.9-1.49,3.9-3.02Z"/><path class="cls-1" d="m235.66,175.38c0-4.29,2.28-7.21,6.34-7.21,2.96,0,5.16,1.81,5.53,4.62h-2.18c-.24-1.45-1.44-2.64-3.33-2.64-2.36,0-4,1.68-4,5.2,0,3.18,1.39,5.25,4.02,5.25,1.89,0,3.09-1.25,3.33-2.64h2.15c-.36,2.77-2.6,4.52-5.52,4.52-3.73,0-6.34-2.48-6.34-7.1Z"/><path class="cls-1" d="m250.17,175.46c0-4.34,2.32-7.29,6.33-7.29s6.04,2.64,6.04,6.82v.91h-9.87c0,2.61,1.29,4.68,3.97,4.68,1.76,0,3.14-.83,3.49-2.38h2.32c-.51,2.81-3.09,4.29-5.77,4.29-3.85,0-6.5-2.62-6.5-7.02Zm9.99-1.23c0-2.37-1.19-4.2-3.68-4.2s-3.82,2.15-3.81,4.2h7.49Z"/></g></svg>